<svg xmlns="http://www.w3.org/2000/svg" xmlns:xlink="http://www.w3.org/1999/xlink" viewBox="0 0 64.23 55.16"><defs><style>.cls-1{isolation:isolate;}.cls-2{fill:none;}.cls-3{fill:url(#radial-gradient);}.cls-4{fill:url(#radial-gradient-2);}.cls-5{fill:url(#radial-gradient-3);}.cls-6{fill:url(#radial-gradient-4);}.cls-7{fill:url(#radial-gradient-5);}.cls-8{fill:url(#radial-gradient-6);}.cls-9{fill:url(#radial-gradient-7);}.cls-10{fill:url(#radial-gradient-8);}.cls-11{fill:url(#radial-gradient-9);}.cls-12{fill:url(#radial-gradient-11);}.cls-13{fill:url(#radial-gradient-13);}.cls-14{fill:url(#radial-gradient-14);}.cls-15{fill:url(#radial-gradient-15);}.cls-16{fill:url(#radial-gradient-16);}.cls-17{fill:url(#radial-gradient-17);}.cls-18{fill:url(#radial-gradient-18);}.cls-19{fill:url(#radial-gradient-19);}.cls-20{fill:url(#radial-gradient-20);}.cls-21{fill:url(#radial-gradient-21);}.cls-22{fill:url(#radial-gradient-22);}.cls-23{fill:url(#radial-gradient-23);}.cls-24{fill:url(#radial-gradient-24);}.cls-25{fill:url(#radial-gradient-25);}.cls-26{fill:url(#radial-gradient-26);}.cls-27{fill:url(#radial-gradient-27);}.cls-28{fill:url(#radial-gradient-29);}.cls-29{fill:url(#radial-gradient-31);}.cls-30{fill:url(#radial-gradient-32);}.cls-31{fill:url(#radial-gradient-34);}.cls-32{fill:url(#radial-gradient-35);}.cls-33{fill:url(#radial-gradient-36);}.cls-34{fill:url(#radial-gradient-37);}.cls-35{fill:url(#radial-gradient-38);}.cls-36{fill:url(#radial-gradient-39);}.cls-37{fill:url(#radial-gradient-40);}.cls-38{fill:url(#radial-gradient-41);}.cls-39{fill:url(#radial-gradient-42);}.cls-40{fill:url(#radial-gradient-43);}.cls-41{fill:url(#radial-gradient-44);}.cls-42{fill:url(#radial-gradient-45);}.cls-43{fill:url(#radial-gradient-46);}.cls-44{fill:url(#radial-gradient-47);}.cls-45{fill:#3d8fcd;}.cls-45,.cls-66{mix-blend-mode:multiply;}.cls-46{fill:url(#radial-gradient-48);}.cls-47{fill:url(#radial-gradient-49);}.cls-48{fill:url(#radial-gradient-50);}.cls-49{fill:url(#radial-gradient-51);}.cls-50{fill:url(#radial-gradient-52);}.cls-51{fill:url(#radial-gradient-53);}.cls-52{fill:url(#radial-gradient-54);}.cls-53{fill:url(#radial-gradient-55);}.cls-54{fill:url(#radial-gradient-56);}.cls-55{fill:url(#radial-gradient-57);}.cls-56{fill:url(#radial-gradient-58);}.cls-57{fill:url(#radial-gradient-59);}.cls-58{fill:url(#radial-gradient-60);}.cls-59{fill:url(#radial-gradient-61);}.cls-60{fill:url(#radial-gradient-62);}.cls-61{fill:url(#radial-gradient-63);}.cls-62{fill:url(#radial-gradient-64);}.cls-63{fill:url(#radial-gradient-65);}.cls-64{fill:url(#radial-gradient-66);}.cls-65{fill:url(#radial-gradient-67);}.cls-66{fill:#444445;opacity:0.86;}</style><radialGradient id="radial-gradient" cx="1832.99" cy="-704.04" r="20.76" gradientTransform="matrix(0, 1.05, 1.1, 0, 821.09, -1915.06)" gradientUnits="userSpaceOnUse"><stop offset="0" stop-color="#cbcbcb"/><stop offset="1" stop-color="#878787"/></radialGradient><radialGradient id="radial-gradient-2" cx="1832.99" cy="-719.43" r="34.49" gradientTransform="matrix(0, 1.05, 1.1, 0, 821.09, -1915.06)" gradientUnits="userSpaceOnUse"><stop offset="0" stop-color="#fefefe"/><stop offset="1" stop-color="#999"/></radialGradient><radialGradient id="radial-gradient-3" cx="1878.47" cy="-731.67" r="31.87" gradientTransform="matrix(0, 1.05, 1.1, 0, 821.09, -1915.06)" gradientUnits="userSpaceOnUse"><stop offset="0" stop-color="#eaeaea"/><stop offset="1" stop-color="#727272"/></radialGradient><radialGradient id="radial-gradient-4" cx="1871.65" cy="-746.37" r="26.26" gradientTransform="matrix(0, 1.05, 1.1, 0, 821.09, -1915.06)" gradientUnits="userSpaceOnUse"><stop offset="0" stop-color="#c4c4c4"/><stop offset="1" stop-color="#7d7d7d"/></radialGradient><radialGradient id="radial-gradient-5" cx="1878.47" cy="-746.37" r="34.4" xlink:href="#radial-gradient-3"/><radialGradient id="radial-gradient-6" cx="1860.63" cy="-741.29" r="15.09" gradientTransform="matrix(0, 1.05, 1.1, 0, 813.79, -1915.48)" gradientUnits="userSpaceOnUse"><stop offset="0" stop-color="#9e9e9e"/><stop offset="1" stop-color="#5f5f5f"/></radialGradient><radialGradient id="radial-gradient-7" cx="1871.65" cy="-746.37" r="15.33" xlink:href="#radial-gradient-4"/><radialGradient id="radial-gradient-8" cx="1871.65" cy="-746.37" r="26.26" gradientTransform="matrix(0, 1.05, 1.1, 0, 821.09, -1915.06)" gradientUnits="userSpaceOnUse"><stop offset="0" stop-color="#cacaca"/><stop offset="1" stop-color="#8b8b8b"/></radialGradient><radialGradient id="radial-gradient-9" cx="1861.85" cy="-728.88" r="20.05" gradientTransform="matrix(0, 1.05, 1.1, 0, 821.09, -1915.06)" gradientUnits="userSpaceOnUse"><stop offset="0" stop-color="#bcbcbc"/><stop offset="1" stop-color="#676767"/></radialGradient><radialGradient id="radial-gradient-11" cx="1878.47" cy="-728.88" r="30.39" gradientTransform="matrix(0, 1.05, 1.1, 0, 821.09, -1915.06)" gradientUnits="userSpaceOnUse"><stop offset="0" stop-color="#ddd"/><stop offset="1" stop-color="#777"/></radialGradient><radialGradient id="radial-gradient-13" cx="1878.47" cy="-715.58" r="26.05" gradientTransform="matrix(0, 1.05, 1.1, 0, 821.09, -1915.06)" gradientUnits="userSpaceOnUse"><stop offset="0" stop-color="#fbfbfb"/><stop offset="1" stop-color="#a1a1a1"/></radialGradient><radialGradient id="radial-gradient-14" cx="1877.42" cy="-711.39" r="30.23" gradientTransform="matrix(0, 1.05, 1.1, 0, 813.79, -1915.48)" gradientUnits="userSpaceOnUse"><stop offset="0" stop-color="#ededed"/><stop offset="1" stop-color="#a5a5a5"/></radialGradient><radialGradient id="radial-gradient-15" cx="1878.47" cy="-713.83" r="26.94" gradientTransform="matrix(0, 1.05, 1.1, 0, 821.09, -1915.06)" gradientUnits="userSpaceOnUse"><stop offset="0" stop-color="#fff"/><stop offset="1" stop-color="#b2b2b2"/></radialGradient><radialGradient id="radial-gradient-16" cx="1877.42" cy="-711.39" r="30.23" gradientTransform="matrix(0, 1.05, 1.1, 0, 813.79, -1915.48)" gradientUnits="userSpaceOnUse"><stop offset="0" stop-color="#fff"/><stop offset="1" stop-color="#b5b5b5"/></radialGradient><radialGradient id="radial-gradient-17" cx="1859.05" cy="-711.39" r="31.21" gradientTransform="matrix(0, 1.05, 1.1, 0, 813.79, -1915.48)" gradientUnits="userSpaceOnUse"><stop offset="0" stop-color="#d6d6d6"/><stop offset="1" stop-color="#959595"/></radialGradient><radialGradient id="radial-gradient-18" cx="1852.76" cy="-711.39" r="30.88" gradientTransform="matrix(0, 1.05, 1.1, 0, 813.79, -1915.48)" gradientUnits="userSpaceOnUse"><stop offset="0" stop-color="#e5e5e5"/><stop offset="1" stop-color="#9e9e9e"/></radialGradient><radialGradient id="radial-gradient-19" cx="1852.76" cy="-711.39" r="34.53" gradientTransform="matrix(0, 1.05, 1.1, 0, 813.79, -1915.48)" xlink:href="#radial-gradient-15"/><radialGradient id="radial-gradient-20" cx="1852.76" cy="-711.39" r="21.47" gradientTransform="matrix(0, 1.05, 1.1, 0, 813.79, -1915.48)" gradientUnits="userSpaceOnUse"><stop offset="0" stop-color="#fff"/><stop offset="1" stop-color="silver"/></radialGradient><radialGradient id="radial-gradient-21" cx="1852.76" cy="-711.39" r="34.53" gradientTransform="matrix(0, 1.05, 1.1, 0, 821.09, -1915.06)" gradientUnits="userSpaceOnUse"><stop offset="0" stop-color="#f1f1f1"/><stop offset="1" stop-color="#a7a7a7"/></radialGradient><radialGradient id="radial-gradient-22" cx="1837.54" cy="-704.04" r="19.02" gradientTransform="matrix(0, 1.05, 1.1, 0, 821.09, -1915.06)" gradientUnits="userSpaceOnUse"><stop offset="0" stop-color="#d3d3d3"/><stop offset="1" stop-color="#8a8a8a"/></radialGradient><radialGradient id="radial-gradient-23" cx="1852.76" cy="-717.86" r="25.67" gradientTransform="matrix(0, 1.05, 1.1, 0, 821.09, -1915.06)" gradientUnits="userSpaceOnUse"><stop offset="0" stop-color="#fff"/><stop offset="1" stop-color="#9b9b9b"/></radialGradient><radialGradient id="radial-gradient-24" cx="1852.76" cy="-711.39" r="21.08" gradientTransform="matrix(0, 1.05, 1.1, 0, 813.79, -1915.48)" gradientUnits="userSpaceOnUse"><stop offset="0" stop-color="#fff"/><stop offset="1" stop-color="#c1c1c1"/></radialGradient><radialGradient id="radial-gradient-25" cx="1838.07" cy="-717.86" r="16.94" gradientTransform="matrix(0, 1.05, 1.1, 0, 813.79, -1915.48)" gradientUnits="userSpaceOnUse"><stop offset="0" stop-color="#fff"/><stop offset="1" stop-color="#b7b7b7"/></radialGradient><radialGradient id="radial-gradient-26" cx="1852.76" cy="-728.88" r="20.31" gradientTransform="matrix(0, 1.05, 1.1, 0, 821.09, -1915.06)" gradientUnits="userSpaceOnUse"><stop offset="0" stop-color="#f1f1f1"/><stop offset="1" stop-color="#8d8d8d"/></radialGradient><radialGradient id="radial-gradient-27" cx="1852.06" cy="-728.88" r="26.21" gradientTransform="matrix(0, 1.05, 1.1, 0, 821.09, -1915.06)" gradientUnits="userSpaceOnUse"><stop offset="0" stop-color="#f4f4f4"/><stop offset="1" stop-color="#7f7f7f"/></radialGradient><radialGradient id="radial-gradient-29" cx="1852.76" cy="-721.7" r="26.57" gradientTransform="matrix(0, 1.05, 1.1, 0, 821.09, -1915.06)" gradientUnits="userSpaceOnUse"><stop offset="0" stop-color="#fefefe"/><stop offset="1" stop-color="#969696"/></radialGradient><radialGradient id="radial-gradient-31" cx="1852.06" cy="-744.09" r="22.79" gradientTransform="matrix(0, 1.05, 1.1, 0, 821.09, -1915.06)" gradientUnits="userSpaceOnUse"><stop offset="0" stop-color="#b7b7b7"/><stop offset="1" stop-color="#717171"/></radialGradient><radialGradient id="radial-gradient-32" cx="1852.06" cy="-732.37" r="27.87" gradientTransform="matrix(0, 1.05, 1.1, 0, 821.09, -1915.06)" gradientUnits="userSpaceOnUse"><stop offset="0" stop-color="#fefefe"/><stop offset="1" stop-color="#848484"/></radialGradient><radialGradient id="radial-gradient-34" cx="1839.11" cy="-744.09" r="28.39" gradientTransform="matrix(0, 1.05, 1.1, 0, 821.09, -1915.06)" gradientUnits="userSpaceOnUse"><stop offset="0" stop-color="#b5b5b5"/><stop offset="1" stop-color="#6a6a6a"/></radialGradient><radialGradient id="radial-gradient-35" cx="1857.83" cy="-741.29" r="14.52" gradientTransform="matrix(0, 1.05, 1.1, 0, 813.79, -1915.48)" gradientUnits="userSpaceOnUse"><stop offset="0" stop-color="#a4a4a4"/><stop offset="1" stop-color="#646464"/></radialGradient><radialGradient id="radial-gradient-36" cx="1857.83" cy="-744.09" r="23.22" gradientTransform="matrix(0, 1.05, 1.1, 0, 821.09, -1915.06)" gradientUnits="userSpaceOnUse"><stop offset="0" stop-color="#bdbdbd"/><stop offset="1" stop-color="#747474"/></radialGradient><radialGradient id="radial-gradient-37" cx="1852.06" cy="-744.09" r="22.79" gradientTransform="matrix(0, 1.05, 1.1, 0, 821.09, -1915.06)" gradientUnits="userSpaceOnUse"><stop offset="0" stop-color="#b1b1b1"/><stop offset="1" stop-color="#6c6c6c"/></radialGradient><radialGradient id="radial-gradient-38" cx="1835.09" cy="-744.09" r="23.95" gradientTransform="matrix(0, 1.05, 1.1, 0, 821.09, -1915.06)" gradientUnits="userSpaceOnUse"><stop offset="0" stop-color="#a9a9a9"/><stop offset="1" stop-color="#696969"/></radialGradient><radialGradient id="radial-gradient-39" cx="1835.09" cy="-744.09" r="28.66" gradientTransform="matrix(0, 1.05, 1.1, 0, 821.09, -1915.06)" gradientUnits="userSpaceOnUse"><stop offset="0" stop-color="#b1b1b1"/><stop offset="1" stop-color="#676767"/></radialGradient><radialGradient id="radial-gradient-40" cx="1828.27" cy="-734.82" r="22.1" gradientTransform="matrix(0, 1.05, 1.1, 0, 821.09, -1915.06)" gradientUnits="userSpaceOnUse"><stop offset="0" stop-color="#e3e3e3"/><stop offset="1" stop-color="#777"/></radialGradient><radialGradient id="radial-gradient-41" cx="1828.27" cy="-734.82" r="22.67" gradientTransform="matrix(0, 1.05, 1.1, 0, 821.09, -1915.06)" gradientUnits="userSpaceOnUse"><stop offset="0" stop-color="#a7a7a7"/><stop offset="1" stop-color="#5c5c5c"/></radialGradient><radialGradient id="radial-gradient-42" cx="1828.27" cy="-726.95" r="27.6" gradientTransform="matrix(0, 1.05, 1.1, 0, 821.09, -1915.06)" gradientUnits="userSpaceOnUse"><stop offset="0" stop-color="#dbdbdb"/><stop offset="1" stop-color="#717171"/></radialGradient><radialGradient id="radial-gradient-43" cx="1832.99" cy="-717.86" r="17.04" gradientTransform="matrix(0, 1.05, 1.1, 0, 813.79, -1915.48)" gradientUnits="userSpaceOnUse"><stop offset="0" stop-color="#fff"/><stop offset="1" stop-color="#bdbdbd"/></radialGradient><radialGradient id="radial-gradient-44" cx="1828.27" cy="-719.43" r="26.73" gradientTransform="matrix(0, 1.05, 1.1, 0, 821.09, -1915.06)" gradientUnits="userSpaceOnUse"><stop offset="0" stop-color="#f4f4f4"/><stop offset="1" stop-color="#909090"/></radialGradient><radialGradient id="radial-gradient-45" cx="1832.99" cy="-719.43" r="34.42" gradientTransform="matrix(0, 1.05, 1.1, 0, 821.09, -1915.06)" xlink:href="#radial-gradient-16"/><radialGradient id="radial-gradient-46" cx="1871.65" cy="-749.86" r="26.77" gradientTransform="matrix(0, 1.05, 1.1, 0, 821.09, -1915.06)" gradientUnits="userSpaceOnUse"><stop offset="0" stop-color="#adadad"/><stop offset="1" stop-color="#6c6c6c"/></radialGradient><radialGradient id="radial-gradient-47" cx="1857.83" cy="-749.86" r="24.3" gradientTransform="matrix(0, 1.05, 1.1, 0, 821.09, -1915.06)" gradientUnits="userSpaceOnUse"><stop offset="0" stop-color="#d2d2d2"/><stop offset="1" stop-color="#838383"/></radialGradient><radialGradient id="radial-gradient-48" cx="1876.23" cy="-664.23" r="15.17" gradientTransform="matrix(0, 1, 1, 0, 718.45, -1815.58)" xlink:href="#radial-gradient-3"/><radialGradient id="radial-gradient-49" cx="1868.32" cy="-662.9" r="9.54" gradientTransform="matrix(0, 1, 1, 0, 718.45, -1815.58)" xlink:href="#radial-gradient-9"/><radialGradient id="radial-gradient-50" cx="1876.23" cy="-662.9" r="14.47" gradientTransform="matrix(0, 1, 1, 0, 718.45, -1815.58)" xlink:href="#radial-gradient-11"/><radialGradient id="radial-gradient-51" cx="1876.23" cy="-656.57" r="12.4" gradientTransform="matrix(0, 1, 1, 0, 718.45, -1815.58)" xlink:href="#radial-gradient-13"/><radialGradient id="radial-gradient-52" cx="1875.73" cy="-654.57" r="14.39" gradientTransform="matrix(0, 1, 1, 0, 718.45, -1815.58)" xlink:href="#radial-gradient-14"/><radialGradient id="radial-gradient-53" cx="1876.23" cy="-655.74" r="12.82" gradientTransform="matrix(0, 1, 1, 0, 718.45, -1815.58)" xlink:href="#radial-gradient-15"/><radialGradient id="radial-gradient-54" cx="1875.73" cy="-654.57" r="14.39" gradientTransform="matrix(0, 1, 1, 0, 718.45, -1815.58)" xlink:href="#radial-gradient-16"/><radialGradient id="radial-gradient-55" cx="1866.99" cy="-654.57" r="14.86" gradientTransform="matrix(0, 1, 1, 0, 718.45, -1815.58)" xlink:href="#radial-gradient-17"/><radialGradient id="radial-gradient-56" cx="1863.99" cy="-654.57" r="14.7" gradientTransform="matrix(0, 1, 1, 0, 718.45, -1815.58)" xlink:href="#radial-gradient-18"/><radialGradient id="radial-gradient-57" cx="1863.99" cy="-654.57" r="16.44" gradientTransform="matrix(0, 1, 1, 0, 718.45, -1815.58)" xlink:href="#radial-gradient-15"/><radialGradient id="radial-gradient-58" cx="1863.99" cy="-654.57" r="10.22" gradientTransform="matrix(0, 1, 1, 0, 718.45, -1815.58)" xlink:href="#radial-gradient-20"/><radialGradient id="radial-gradient-59" cx="1863.99" cy="-654.57" r="16.44" gradientTransform="matrix(0, 1, 1, 0, 718.45, -1815.58)" xlink:href="#radial-gradient-21"/><radialGradient id="radial-gradient-60" cx="1863.99" cy="-657.65" r="12.22" gradientTransform="matrix(0, 1, 1, 0, 718.45, -1815.58)" xlink:href="#radial-gradient-23"/><radialGradient id="radial-gradient-61" cx="1863.99" cy="-654.57" r="10.04" gradientTransform="matrix(0, 1, 1, 0, 718.45, -1815.58)" xlink:href="#radial-gradient-24"/><radialGradient id="radial-gradient-62" cx="1857" cy="-657.65" r="8.06" gradientTransform="matrix(0, 1, 1, 0, 718.45, -1815.58)" xlink:href="#radial-gradient-25"/><radialGradient id="radial-gradient-63" cx="1863.99" cy="-662.9" r="9.67" gradientTransform="matrix(0, 1, 1, 0, 718.45, -1815.58)" xlink:href="#radial-gradient-26"/><radialGradient id="radial-gradient-64" cx="1863.66" cy="-662.9" r="12.48" gradientTransform="matrix(0, 1, 1, 0, 718.45, -1815.58)" xlink:href="#radial-gradient-27"/><radialGradient id="radial-gradient-65" cx="1863.99" cy="-659.48" r="12.65" gradientTransform="matrix(0, 1, 1, 0, 718.45, -1815.58)" xlink:href="#radial-gradient-29"/><radialGradient id="radial-gradient-66" cx="1875.74" cy="-648.16" r="9.05" gradientTransform="matrix(0, 1, 1, 0, 718.45, -1815.58)" xlink:href="#radial-gradient-8"/><radialGradient id="radial-gradient-67" cx="1869.24" cy="-648.16" r="10.17" gradientTransform="matrix(0, 1, 1, 0, 718.45, -1815.58)" gradientUnits="userSpaceOnUse"><stop offset="0" stop-color="#a0a0a0"/><stop offset="1" stop-color="#6a6a6a"/></radialGradient></defs><title>default-small</title><g class="cls-1"><g id="Layer_1" data-name="Layer 1"><path class="cls-2" d="M38.48,35.18V33.06a52.1,52.1,0,0,0-7.87.83,23.82,23.82,0,0,0-3.24.86,12.11,12.11,0,0,0-1.64.68,10.43,10.43,0,0,0-1.07.65,6,6,0,0,0-.83.71,4.35,4.35,0,0,0-.59.74,5,5,0,0,0-.7,2.58c0,1.81.5,3.09,1.5,3.82A7.21,7.21,0,0,0,28.4,45h.31A12.58,12.58,0,0,0,33.8,44a12.36,12.36,0,0,0,1.13-.6,18,18,0,0,0,3.55-2.9Z" transform="translate(-7.29 -0.42)"/><path class="cls-3" d="M52.72,13.49c-.06-.15-.1-.32-.16-.47a19.08,19.08,0,0,0-2.75-5l-.09,6.5Z" transform="translate(-7.29 -0.42)"/><path class="cls-4" d="M49.81,8a18,18,0,0,0-1.38-1.63,18.22,18.22,0,0,0-4.79-3.54l6.08,11.67Z" transform="translate(-7.29 -0.42)"/><path class="cls-5" d="M28.4,45A7.21,7.21,0,0,1,24,43.93c-1-.73-1.5-2-1.5-3.82a5,5,0,0,1,.7-2.58,4.35,4.35,0,0,1,.59-.74l-1.32-2.23-3.07,16,7.81,4.71c.36,0,.74-.08,1.08-.15a18.82,18.82,0,0,0,4.21-1.34c.36-.16.7-.35,1.06-.53L28.71,45Z" transform="translate(-7.29 -0.42)"/><path class="cls-6" d="M22.51,34.56,9.26,48.82a12,12,0,0,0,2.41,3c.29.25.6.48.91.71l6.86-2Z" transform="translate(-7.29 -0.42)"/><path class="cls-7" d="M12.58,52.54a14.5,14.5,0,0,0,4.16,2.09,21.8,21.8,0,0,0,6.63.95,27.36,27.36,0,0,0,3.88-.29l-7.81-4.71Z" transform="translate(-7.29 -0.42)"/><polygon class="cls-8" points="3.33 43.16 15.22 34.14 1.61 40.22 3.33 43.16"/><path class="cls-9" d="M8.9,40.64,7.59,44.08a14.09,14.09,0,0,0,.83,3l2.21-3.52Z" transform="translate(-7.29 -0.42)"/><path class="cls-10" d="M10.63,43.58,8.42,47.1a.42.42,0,0,0,0,.12,11.37,11.37,0,0,0,.8,1.6L22.51,34.56Z" transform="translate(-7.29 -0.42)"/><path class="cls-11" d="M25.73,35.43a12.11,12.11,0,0,1,1.64-.68l-4.86-.19,2.15,1.52A10.43,10.43,0,0,1,25.73,35.43Z" transform="translate(-7.29 -0.42)"/><path class="cls-11" d="M38.48,40.46a18,18,0,0,1-3.55,2.9l2.14,1.51,4.6-9.57-3.19-.12Z" transform="translate(-7.29 -0.42)"/><path class="cls-12" d="M22.51,34.56l1.32,2.23a6,6,0,0,1,.83-.71Z" transform="translate(-7.29 -0.42)"/><path class="cls-12" d="M34.93,43.36a12.36,12.36,0,0,1-1.13.6A12.58,12.58,0,0,1,28.71,45l4.89,8.24a26.24,26.24,0,0,0,2.77-1.65c.44-.3.89-.64,1.33-1l-.63-5.77Z" transform="translate(-7.29 -0.42)"/><path class="cls-13" d="M37.07,44.87l.63,5.77c.83-.62,1.66-1.27,2.53-2l.09.25L41.67,35.3Z" transform="translate(-7.29 -0.42)"/><polygon class="cls-14" points="34.38 34.88 40.49 54.33 46.71 54.33 46.71 51.58 34.38 34.88"/><path class="cls-15" d="M40.32,48.89l1,2.68a4.66,4.66,0,0,0,1.93,2.57,7.46,7.46,0,0,0,3.41.62h1.08L41.67,35.3Z" transform="translate(-7.29 -0.42)"/><polygon class="cls-16" points="46.71 51.58 46.71 40.42 34.38 34.88 46.71 51.58"/><polygon class="cls-17" points="46.71 40.42 46.71 33.84 34.38 34.88 46.71 40.42"/><polygon class="cls-18" points="46.71 33.84 46.71 29.77 34.38 34.88 46.71 33.84"/><polygon class="cls-19" points="46.71 29.77 46.71 22.06 34.38 34.88 46.71 29.77"/><polygon class="cls-20" points="42.43 14.07 34.38 34.88 43.58 18.86 42.43 14.07"/><path class="cls-21" d="M41.67,35.3,54,22.48v-1a25.94,25.94,0,0,0-.31-4l-2.82,1.83Z" transform="translate(-7.29 -0.42)"/><path class="cls-22" d="M50.87,19.28l2.82-1.83a23.14,23.14,0,0,0-1-4l-3,1Z" transform="translate(-7.29 -0.42)"/><path class="cls-23" d="M43,19.83,34.58,9.52l1.25,4.55a6,6,0,0,1,.72.62c1.29,1.38,1.93,3.64,1.93,6.76V23.7l3.19,11.6Z" transform="translate(-7.29 -0.42)"/><polygon class="cls-24" points="35.72 19.41 34.38 34.88 42.43 14.07 35.72 19.41"/><polygon class="cls-25" points="27.29 9.1 35.72 19.41 42.43 14.07 27.29 9.1"/><path class="cls-26" d="M22.51,34.56l4.86.19a23.82,23.82,0,0,1,3.24-.86,52.1,52.1,0,0,1,7.87-.83v2.12l3.19.12L30.37,24.44Z" transform="translate(-7.29 -0.42)"/><path class="cls-27" d="M33,12.8c.21,0,.41.11.61.16l1-3.44Z" transform="translate(-7.29 -0.42)"/><path class="cls-27" d="M30.37,24.44l.05-.2c-1.1.13-2.15.28-3.16.46l-4.75,9.86Z" transform="translate(-7.29 -0.42)"/><path class="cls-28" d="M33.61,13a6.44,6.44,0,0,1,2.22,1.11L34.58,9.52Z" transform="translate(-7.29 -0.42)"/><path class="cls-28" d="M41.67,35.3,38.48,23.7h0c-2.93.06-5.61.24-8.06.53l-.05.2Z" transform="translate(-7.29 -0.42)"/><path class="cls-29" d="M20.24,26.51a33.64,33.64,0,0,0-3.78,1.57l6.05,6.48Z" transform="translate(-7.29 -0.42)"/><path class="cls-30" d="M30.26,12.63c.27,0,.53,0,.82,0a9.67,9.67,0,0,1,1.92.2l1.58-3.28Z" transform="translate(-7.29 -0.42)"/><path class="cls-30" d="M27.26,24.7c-1.4.24-2.73.53-3.94.86s-2.11.61-3.08,1l2.27,8.05Z" transform="translate(-7.29 -0.42)"/><path class="cls-31" d="M13.43,14.81a7.4,7.4,0,0,0,1.1,1,4.55,4.55,0,0,0,2.77.82A7.6,7.6,0,0,0,20.49,16c.89-.41,1.81-.88,2.75-1.39a20.91,20.91,0,0,1,3.21-1.39,13.31,13.31,0,0,1,3.81-.59l4.32-3.11Z" transform="translate(-7.29 -0.42)"/><polygon class="cls-32" points="1.61 40.22 15.22 34.14 3.72 32.3 1.61 40.22"/><path class="cls-33" d="M11,32.72l-.19-.59A11.89,11.89,0,0,0,8.77,35c-.17.35-.31.7-.45,1.05l.58,4.55Z" transform="translate(-7.29 -0.42)"/><path class="cls-34" d="M22.51,34.56l-6.05-6.48a22.21,22.21,0,0,0-2.71,1.56,18.4,18.4,0,0,0-2.93,2.49l.19.59Z" transform="translate(-7.29 -0.42)"/><path class="cls-35" d="M18.21,3.45A32.48,32.48,0,0,0,9.8,8.85l1.5,2.61,7.18-6.91Z" transform="translate(-7.29 -0.42)"/><path class="cls-36" d="M18.48,4.55,11.3,11.46l1.38,2.38a7.63,7.63,0,0,0,.75,1L34.58,9.52Z" transform="translate(-7.29 -0.42)"/><path class="cls-37" d="M34.58,9.52,24.45,1.4a34.76,34.76,0,0,0-3.94,1.1c-.78.28-1.54.61-2.3,1l.27,1.1Z" transform="translate(-7.29 -0.42)"/><path class="cls-38" d="M29,.65a37.22,37.22,0,0,0-4.55.75L34.58,9.52Z" transform="translate(-7.29 -0.42)"/><path class="cls-39" d="M34,.46c-.29,0-.58,0-.88,0-1.41,0-2.78.1-4.13.23l5.58,8.87Z" transform="translate(-7.29 -0.42)"/><polygon class="cls-40" points="32.08 3.58 27.29 9.1 42.43 14.07 32.08 3.58"/><path class="cls-41" d="M39.37,4l-.89-3A24.53,24.53,0,0,0,34,.46l.57,9.06Z" transform="translate(-7.29 -0.42)"/><path class="cls-42" d="M49.72,14.49,43.64,2.82A19.56,19.56,0,0,0,41.85,2a20.53,20.53,0,0,0-3.37-1l.89,3Z" transform="translate(-7.29 -0.42)"/><path class="cls-43" d="M7.53,38.86a11.52,11.52,0,0,0-.2,2,19.2,19.2,0,0,0,.26,3.2L8.9,40.64Z" transform="translate(-7.29 -0.42)"/><path class="cls-44" d="M8.32,36.09a13.28,13.28,0,0,0-.79,2.77L8.9,40.64Z" transform="translate(-7.29 -0.42)"/><path class="cls-45" d="M9.76,8.85A32.45,32.45,0,0,1,20.48,2.5,37.75,37.75,0,0,1,33.1.42,23,23,0,0,1,41.81,2a18.77,18.77,0,0,1,6.58,4.37A19.13,19.13,0,0,1,52.53,13,23.91,23.91,0,0,1,54,21.45V54.76h-7.3a7.48,7.48,0,0,1-3.42-.62,4.75,4.75,0,0,1-1.93-2.57l-1.13-2.93q-2,1.7-3.85,3a24.09,24.09,0,0,1-3.83,2.18,18.9,18.9,0,0,1-4.22,1.34,26,26,0,0,1-5,.44,21.89,21.89,0,0,1-6.63-.95,13.87,13.87,0,0,1-5.06-2.8,12.41,12.41,0,0,1-3.22-4.61,16.61,16.61,0,0,1-1.13-6.34A13.26,13.26,0,0,1,8.73,35a14.4,14.4,0,0,1,5-5.4,31.91,31.91,0,0,1,9.56-4.08,63.58,63.58,0,0,1,15.16-1.85V21.45c0-3.12-.64-5.38-1.92-6.76A7.1,7.1,0,0,0,31,12.6a14.6,14.6,0,0,0-4.63.62,20.91,20.91,0,0,0-3.21,1.39c-.94.51-1.86,1-2.75,1.39a7.57,7.57,0,0,1-3.19.61,4.57,4.57,0,0,1-2.77-.82,7.13,7.13,0,0,1-1.85-1.95ZM38.44,33.06a52,52,0,0,0-7.86.83,18.74,18.74,0,0,0-4.88,1.54,5.85,5.85,0,0,0-2.5,2.1,5,5,0,0,0-.69,2.58c0,1.81.49,3.09,1.49,3.82A7.24,7.24,0,0,0,28.37,45,12.69,12.69,0,0,0,33.77,44a16.22,16.22,0,0,0,4.67-3.5Z" transform="translate(-7.29 -0.42)"/><path class="cls-46" d="M57.19,51.17A7.14,7.14,0,0,0,58.36,53l-1.43-2.52A5.17,5.17,0,0,0,57.19,51.17Z" transform="translate(-7.29 -0.42)"/><path class="cls-47" d="M63.88,48.41l-7.26-.29c0,.09,0,.19,0,.28s0,.32,0,.47l5.26,3.87Z" transform="translate(-7.29 -0.42)"/><path class="cls-48" d="M56.63,48.87a6.55,6.55,0,0,0,.3,1.61L58.36,53q.2.22.42.45A8.17,8.17,0,0,0,61.11,55a6.47,6.47,0,0,0,1,.35l-.27-2.61Z" transform="translate(-7.29 -0.42)"/><path class="cls-49" d="M61.89,52.74l.27,2.61a6.14,6.14,0,0,0,1,.19l.68-7.13Z" transform="translate(-7.29 -0.42)"/><path class="cls-50" d="M66,55.31a8.85,8.85,0,0,0,.91-.31,7.93,7.93,0,0,0,1.23-.64l-4.22-6Z" transform="translate(-7.29 -0.42)"/><path class="cls-51" d="M63.2,55.54a6.12,6.12,0,0,0,.74,0,7.82,7.82,0,0,0,2-.27l-2.08-6.9Z" transform="translate(-7.29 -0.42)"/><path class="cls-52" d="M70.29,51.41l-6.41-3,4.22,6a8.14,8.14,0,0,0,1.19-.91,7.28,7.28,0,0,0,1.14-1.4Z" transform="translate(-7.29 -0.42)"/><path class="cls-53" d="M70.29,51.41,71,51a6.54,6.54,0,0,0,.55-2.64c0-.22,0-.44,0-.66l-7.61.67Z" transform="translate(-7.29 -0.42)"/><path class="cls-54" d="M71.49,47.74a6.76,6.76,0,0,0-.57-2.17s-.06-.1-.08-.16l-7,3Z" transform="translate(-7.29 -0.42)"/><path class="cls-55" d="M70.84,45.41a7.52,7.52,0,0,0-1.55-2.15L68.93,43l-5.05,5.46Z" transform="translate(-7.29 -0.42)"/><path class="cls-56" d="M67.44,42a3.68,3.68,0,0,0-.57-.26l-.44-.16-2.55,6.86Z" transform="translate(-7.29 -0.42)"/><path class="cls-57" d="M68.93,43a7.53,7.53,0,0,0-1.49-1l-3.56,6.44Z" transform="translate(-7.29 -0.42)"/><path class="cls-58" d="M63.94,41.15A7.52,7.52,0,0,0,62,41.4l1.85,7,.59-7-.2-.26" transform="translate(-7.29 -0.42)"/><path class="cls-59" d="M64.74,41.19l-.27.23-.59,7,2.55-6.86a7.26,7.26,0,0,0-1.69-.36" transform="translate(-7.29 -0.42)"/><path class="cls-60" d="M64.27,41.16l.2.26.27-.23" transform="translate(-7.29 -0.42)"/><path class="cls-61" d="M59,43.5l-2,2.71a7.15,7.15,0,0,0-.33,1.91l7.26.29Z" transform="translate(-7.29 -0.42)"/><path class="cls-62" d="M59.12,43c-.12.1-.23.19-.34.3a7.23,7.23,0,0,0-1.59,2.31c-.09.21-.17.43-.24.64l2-2.71Z" transform="translate(-7.29 -0.42)"/><path class="cls-63" d="M63.88,48.41,62,41.4a6.22,6.22,0,0,0-.92.31,7.34,7.34,0,0,0-2,1.25L59,43.5Z" transform="translate(-7.29 -0.42)"/><path class="cls-64" d="M70.43,52.05c.07-.11.14-.21.2-.32l-.34-.32Z" transform="translate(-7.29 -0.42)"/><path class="cls-65" d="M70.63,51.73c.1-.18.2-.36.29-.56,0,0,0-.09,0-.13l-.68.37Z" transform="translate(-7.29 -0.42)"/><path class="cls-66" d="M63.94,41.15a7,7,0,0,0-2.83.56,7.59,7.59,0,0,0-2.33,1.55,7.23,7.23,0,0,0-1.59,2.31,6.89,6.89,0,0,0-.58,2.83,6.61,6.61,0,0,0,.58,2.77,7.1,7.1,0,0,0,1.59,2.28A8.17,8.17,0,0,0,61.11,55a6.89,6.89,0,0,0,2.83.58A7.37,7.37,0,0,0,66.87,55a8.09,8.09,0,0,0,2.42-1.55,7.38,7.38,0,0,0,1.63-2.28,6.48,6.48,0,0,0,.6-2.77,6.75,6.75,0,0,0-.6-2.83,7.62,7.62,0,0,0-7-4.42" transform="translate(-7.29 -0.42)"/></g></g></svg>